<svg width="24" height="24" viewBox="0 0 24 24" fill="none" xmlns="http://www.w3.org/2000/svg">
<path d="M8.39587 17.3333C7.94714 17.3333 7.58337 17.6971 7.58337 18.1458C7.58337 18.5946 7.94714 18.9583 8.39587 18.9583H14.8959C15.3446 18.9583 15.7084 18.5946 15.7084 18.1458C15.7084 17.6971 15.3446 17.3333 14.8959 17.3333H8.39587Z" fill="white"/>
<path fill-rule="evenodd" clip-rule="evenodd" d="M11.6459 0C10.8807 0 10.3947 0.540969 10.0678 1.02611C9.73613 1.51848 9.38998 2.22786 8.9796 3.0689L6.52826 8.09205C6.29097 8.57829 6.13832 8.889 6.00587 9.10457C5.91395 9.25419 5.86373 9.30234 5.85196 9.31255C5.81811 9.32828 5.78654 9.33332 5.75745 9.33126C5.73867 9.32084 5.68603 9.28759 5.58923 9.19809C5.41364 9.03574 5.19502 8.78846 4.84833 8.39378L4.8168 8.35788C4.19639 7.65158 3.68961 7.07462 3.27219 6.68441C3.05815 6.48432 2.83318 6.29991 2.59674 6.16774C2.35632 6.03335 2.05441 5.92534 1.70993 5.9556C1.19744 6.00061 0.742688 6.2598 0.423852 6.64503C0.0391999 7.10977 -0.00409161 7.75947 0.000276729 8.32113C0.00499563 8.92785 0.0807898 9.7331 0.174971 10.7337L0.432091 13.4656C0.632497 15.5951 0.789453 17.2629 1.06135 18.5586C1.33835 19.8786 1.75477 20.9231 2.54997 21.7366C3.35711 22.5622 4.34889 22.9401 5.57454 23.1193C6.75353 23.2917 8.24275 23.2917 10.1082 23.2917H13.1835C15.049 23.2917 16.5382 23.2917 17.7172 23.1193C18.9429 22.9401 19.9346 22.5622 20.7418 21.7366C21.537 20.9231 21.9534 19.8786 22.2304 18.5586C22.5023 17.2629 22.6592 15.5951 22.8596 13.4657L23.1168 10.7337C23.2109 9.7331 23.2867 8.92784 23.2915 8.32113C23.2958 7.75947 23.2525 7.10977 22.8679 6.64503C22.5491 6.2598 22.0943 6.00061 21.5818 5.9556C21.2373 5.92534 20.9354 6.03335 20.695 6.16774C20.4586 6.29991 20.2336 6.48432 20.0196 6.68441C19.6021 7.07463 19.0953 7.65158 18.4749 8.3579L18.4434 8.39378C18.0967 8.78846 17.8781 9.03574 17.7025 9.19809C17.6057 9.28759 17.5531 9.32084 17.5343 9.33126C17.5052 9.33332 17.4736 9.32828 17.4398 9.31255C17.428 9.30234 17.3778 9.25418 17.2859 9.10457C17.1534 8.889 17.0008 8.57829 16.7635 8.09205L14.3121 3.06889C13.9018 2.22786 13.5556 1.51847 13.2239 1.02611C12.8971 0.540967 12.4111 0 11.6459 0ZM10.4119 3.8391C10.8579 2.92514 11.1551 2.32056 11.4155 1.93402C11.5258 1.77032 11.6016 1.68847 11.6459 1.64905C11.6901 1.68847 11.7659 1.77032 11.8762 1.93402C12.1366 2.32056 12.4338 2.92514 12.8798 3.8391L15.3202 8.83967C15.5354 9.28079 15.7224 9.66407 15.9013 9.95525C16.0845 10.2534 16.3261 10.5714 16.7024 10.7608C17.042 10.9317 17.4246 10.9944 17.8032 10.9346C18.2293 10.8673 18.5526 10.6253 18.8057 10.3912C19.0511 10.1643 19.3258 9.85161 19.6373 9.49688L19.6643 9.46621C20.3238 8.71536 20.7777 8.20012 21.1293 7.87149C21.3032 7.70886 21.4176 7.62547 21.4879 7.58618L21.4888 7.58564C21.5254 7.59899 21.5679 7.62542 21.6098 7.67381C21.6097 7.67376 21.6099 7.67378 21.6098 7.67381C21.6095 7.67399 21.61 7.6761 21.6114 7.68068C21.6216 7.71298 21.6699 7.86665 21.6665 8.30849C21.6624 8.8364 21.594 9.57119 21.495 10.6232L21.2467 13.2614C21.0403 15.4541 20.8908 17.0299 20.64 18.2248C20.3922 19.406 20.0657 20.1035 19.5798 20.6006C19.1057 21.0855 18.4968 21.363 17.4821 21.5114C16.4341 21.6646 15.0638 21.6667 13.1191 21.6667H10.1726C8.22793 21.6667 6.85761 21.6646 5.80968 21.5114C4.79489 21.363 4.186 21.0855 3.71198 20.6006C3.22601 20.1035 2.89956 19.406 2.65171 18.2248C2.40096 17.0299 2.25141 15.4541 2.04505 13.2614L1.79675 10.6232C1.69774 9.57118 1.62933 8.8364 1.62523 8.30849C1.62179 7.86673 1.66999 7.71306 1.68013 7.68072C1.68157 7.67614 1.68224 7.67399 1.68189 7.67381C1.72383 7.62542 1.76631 7.59899 1.8029 7.58564L1.80386 7.58618C1.87415 7.62547 1.9885 7.70886 2.16247 7.87149C2.51401 8.20012 2.96791 8.71536 3.62746 9.46621L3.65442 9.4969C3.96597 9.85161 4.24064 10.1643 4.48603 10.3912C4.73916 10.6253 5.06247 10.8673 5.48853 10.9346C5.86718 10.9944 6.24977 10.9317 6.58932 10.7608C6.96564 10.5714 7.20722 10.2534 7.39042 9.95525C7.56932 9.66408 7.75632 9.28083 7.97156 8.83974L10.4119 3.8391ZM21.6098 7.67381C21.6119 7.6762 21.614 7.67864 21.616 7.68113C21.6134 7.678 21.6117 7.67574 21.6107 7.6746C21.6103 7.67417 21.61 7.6739 21.6098 7.67381ZM11.6936 1.6152C11.6936 1.61571 11.6902 1.61777 11.6836 1.61988C11.6903 1.61575 11.6937 1.6147 11.6936 1.6152ZM11.6082 1.61988C11.6015 1.61777 11.5982 1.61571 11.5981 1.6152C11.5981 1.6147 11.6014 1.61575 11.6082 1.61988Z" fill="white"/>
</svg>
