<svg width="27" height="26" viewBox="0 0 27 26" fill="none" xmlns="http://www.w3.org/2000/svg">
<path d="M24.4584 13C24.4584 14.4227 24.1782 15.8314 23.6338 17.1458C23.0894 18.4601 22.2914 19.6544 21.2854 20.6603C20.2794 21.6663 19.0852 22.4643 17.7708 23.0087C16.4565 23.5531 15.0477 23.8334 13.6251 23.8334C12.2024 23.8334 10.7937 23.5531 9.47934 23.0087C8.16498 22.4643 6.97073 21.6663 5.96476 20.6603C4.95879 19.6544 4.16081 18.4601 3.61639 17.1458C3.07196 15.8314 2.79175 14.4227 2.79175 13C2.79175 11.5774 3.07196 10.1686 3.61639 8.85428C4.16081 7.53992 4.95879 6.34566 5.96476 5.3397C6.97073 4.33373 8.16499 3.53575 9.47935 2.99132C10.7937 2.4469 12.2024 2.16669 13.6251 2.16669C15.0477 2.16669 16.4565 2.4469 17.7708 2.99133C19.0852 3.53575 20.2794 4.33373 21.2854 5.3397C22.2914 6.34567 23.0894 7.53992 23.6338 8.85429C24.1782 10.1686 24.4584 11.5774 24.4584 13L24.4584 13Z" stroke="white" stroke-width="1.5"/>
<path d="M17.9584 13C17.9584 14.4227 17.8463 15.8314 17.6286 17.1458C17.4108 18.4601 17.0916 19.6544 16.6892 20.6603C16.2868 21.6663 15.8091 22.4643 15.2834 23.0087C14.7576 23.5531 14.1941 23.8334 13.6251 23.8334C13.056 23.8334 12.4925 23.5531 11.9668 23.0087C11.441 22.4643 10.9633 21.6663 10.561 20.6603C10.1586 19.6544 9.83937 18.4601 9.6216 17.1458C9.40383 15.8314 9.29175 14.4227 9.29175 13C9.29175 11.5774 9.40383 10.1686 9.6216 8.85428C9.83937 7.53992 10.1586 6.34566 10.561 5.3397C10.9633 4.33373 11.441 3.53575 11.9668 2.99132C12.4925 2.4469 13.056 2.16669 13.6251 2.16669C14.1941 2.16669 14.7576 2.4469 15.2834 2.99133C15.8091 3.53575 16.2868 4.33373 16.6892 5.3397C17.0916 6.34567 17.4108 7.53992 17.6286 8.85429C17.8463 10.1686 17.9584 11.5774 17.9584 13L17.9584 13Z" stroke="white" stroke-width="1.5"/>
<path d="M2.79175 13H24.4584" stroke="white" stroke-width="1.5" stroke-linecap="round"/>
</svg>
