<svg width="300" height="300" viewBox="0 0 300 300" fill="none" xmlns="http://www.w3.org/2000/svg">
<path d="M274.999 102.029L274.999 102.936C274.999 113.695 274.999 119.075 272.409 123.476C269.819 127.878 265.116 130.49 255.711 135.716L245.795 141.225C252.628 118.123 254.908 93.3018 255.751 72.0747C255.787 71.1645 255.828 70.2432 255.869 69.3121L255.897 68.6599C264.038 71.487 268.609 73.5947 271.461 77.551C275 82.4616 275 88.9841 274.999 102.029Z" fill="url(#paint0_linear_2005_17909)"/>
<path d="M25 102.029L25 102.936C25.0003 113.695 25.0005 119.075 27.5903 123.476C30.1802 127.878 34.8829 130.49 44.2881 135.716L54.2101 141.228C47.3759 118.125 45.0959 93.3027 44.2531 72.0747C44.217 71.1645 44.1763 70.2432 44.1351 69.3121L44.1063 68.6583C35.9626 71.4862 31.3907 73.594 28.5387 77.551C24.9995 82.4616 24.9997 88.9842 25 102.029Z" fill="url(#paint1_linear_2005_17909)"/>
<path fill-rule="evenodd" clip-rule="evenodd" d="M150.002 25C172.296 25 190.663 26.9636 204.714 29.3343C218.948 31.7359 226.065 32.9367 232.012 40.2604C237.958 47.5841 237.644 55.4997 237.015 71.3309C234.858 125.681 223.129 193.566 159.375 199.571V243.75H177.252C183.211 243.75 188.341 247.956 189.51 253.799L191.875 265.625H225C230.178 265.625 234.375 269.822 234.375 275C234.375 280.178 230.178 284.375 225 284.375H75C69.8223 284.375 65.625 280.178 65.625 275C65.625 269.822 69.8223 265.625 75 265.625H108.125L110.49 253.799C111.659 247.956 116.789 243.75 122.748 243.75H140.625V199.571C76.8745 193.563 65.1461 125.68 62.9884 71.3309C62.3599 55.4997 62.0456 47.5841 67.9921 40.2604C73.9385 32.9367 81.0556 31.7359 95.2897 29.3343C109.341 26.9636 127.708 25 150.002 25ZM161.904 77.4859L160.676 75.2814C155.926 66.7605 153.551 62.5 150 62.5C146.449 62.5 144.074 66.7605 139.324 75.2814L138.095 77.4859C136.746 79.9072 136.071 81.118 135.019 81.9168C133.966 82.7156 132.656 83.0121 130.035 83.6052L127.648 84.1451C118.424 86.2321 113.813 87.2756 112.715 90.804C111.618 94.3324 114.762 98.009 121.05 105.362L122.677 107.265C124.464 109.354 125.358 110.399 125.759 111.691C126.161 112.984 126.026 114.378 125.756 117.166L125.51 119.704C124.56 129.515 124.084 134.42 126.957 136.601C129.829 138.781 134.148 136.793 142.784 132.817L145.018 131.788C147.472 130.658 148.699 130.093 150 130.093C151.301 130.093 152.528 130.658 154.982 131.788L157.216 132.817C165.852 136.793 170.171 138.781 173.043 136.601C175.916 134.42 175.44 129.515 174.49 119.704L174.244 117.166C173.974 114.378 173.839 112.984 174.241 111.691C174.642 110.399 175.536 109.354 177.323 107.265L178.95 105.362C185.238 98.009 188.382 94.3324 187.285 90.804C186.187 87.2756 181.576 86.2321 172.352 84.1451L169.965 83.6052C167.344 83.0121 166.034 82.7156 164.981 81.9168C163.929 81.1179 163.254 79.9073 161.904 77.4859Z" fill="url(#paint2_linear_2005_17909)"/>
<defs>
<linearGradient id="paint0_linear_2005_17909" x1="150" y1="25" x2="150" y2="284.375" gradientUnits="userSpaceOnUse">
<stop stop-color="#FFC700"/>
<stop offset="1" stop-color="#FF9900"/>
</linearGradient>
<linearGradient id="paint1_linear_2005_17909" x1="150" y1="25" x2="150" y2="284.375" gradientUnits="userSpaceOnUse">
<stop stop-color="#FFC700"/>
<stop offset="1" stop-color="#FF9900"/>
</linearGradient>
<linearGradient id="paint2_linear_2005_17909" x1="150" y1="25" x2="150" y2="284.375" gradientUnits="userSpaceOnUse">
<stop stop-color="#FFC700"/>
<stop offset="1" stop-color="#FF9900"/>
</linearGradient>
</defs>
</svg>
