<svg width="300" height="300" viewBox="0 0 300 300" fill="none" xmlns="http://www.w3.org/2000/svg">
<path fill-rule="evenodd" clip-rule="evenodd" d="M37.5 130.208C37.5 90.2384 37.5 70.2535 42.2189 63.5301C46.9379 56.8067 65.7291 50.3745 103.311 37.5099L110.472 35.059C130.062 28.353 139.858 25 150 25C160.142 25 169.938 28.353 189.528 35.059L196.689 37.5099C234.271 50.3745 253.062 56.8067 257.781 63.5301C262.5 70.2535 262.5 90.2384 262.5 130.208V149.892C262.5 220.368 209.513 254.569 176.268 269.091C167.25 273.03 162.741 275 150 275C137.259 275 132.75 273.03 123.732 269.091C90.487 254.569 37.5 220.368 37.5 149.892V130.208ZM175 112.5C175 126.307 163.807 137.5 150 137.5C136.193 137.5 125 126.307 125 112.5C125 98.6929 136.193 87.5 150 87.5C163.807 87.5 175 98.6929 175 112.5ZM150 212.5C200 212.5 200 201.307 200 187.5C200 173.693 177.614 162.5 150 162.5C122.386 162.5 100 173.693 100 187.5C100 201.307 100 212.5 150 212.5Z" fill="url(#paint0_linear_2005_17910)"/>
<defs>
<linearGradient id="paint0_linear_2005_17910" x1="150" y1="25" x2="150" y2="275" gradientUnits="userSpaceOnUse">
<stop stop-color="#FFC700"/>
<stop offset="1" stop-color="#FF9900"/>
</linearGradient>
</defs>
</svg>
