<svg width="300" height="300" viewBox="0 0 300 300" fill="none" xmlns="http://www.w3.org/2000/svg">
<path d="M78.2492 267.355H75C63.2149 267.355 57.3223 267.355 53.6612 263.694C50 260.032 50 254.14 50 242.355V228.456C50 221.974 50 218.733 51.6647 215.839C53.3295 212.945 55.8409 211.485 60.8638 208.563C93.9322 189.33 140.894 178.504 172.238 197.199C174.344 198.455 176.238 199.971 177.857 201.789C184.833 209.625 184.324 221.451 176.284 228.469C174.587 229.951 172.777 231.074 170.954 231.465C172.452 231.291 173.888 231.092 175.257 230.874C186.65 229.057 196.213 222.969 204.968 216.355L227.558 199.291C235.521 193.275 247.341 193.274 255.307 199.288C262.477 204.702 264.67 213.618 260.137 220.884C254.85 229.359 247.401 240.2 240.249 246.824C233.087 253.458 222.424 259.38 213.718 263.582C204.076 268.236 193.422 270.918 182.587 272.672C160.611 276.229 137.707 275.686 115.954 271.205C103.657 268.671 90.8849 267.355 78.2492 267.355Z" fill="url(#paint0_linear_2005_17912)"/>
<path d="M135.766 42.0419C142.099 30.6806 145.266 25 150 25C154.734 25 157.901 30.6806 164.234 42.0419L165.873 44.9812C167.672 48.2097 168.572 49.8239 169.975 50.889C171.378 51.9541 173.126 52.3495 176.621 53.1402L179.802 53.8601C192.101 56.6428 198.25 58.0341 199.713 62.7387C201.176 67.4432 196.984 72.3454 188.6 82.1496L186.43 84.6861C184.048 87.4722 182.857 88.8652 182.321 90.5886C181.785 92.312 181.965 94.1706 182.325 97.8878L182.653 101.272C183.921 114.353 184.554 120.894 180.724 123.801C176.894 126.709 171.137 124.058 159.622 118.756L156.643 117.384C153.37 115.878 151.734 115.124 150 115.124C148.266 115.124 146.63 115.878 143.357 117.384L140.378 118.756C128.863 124.058 123.106 126.709 119.276 123.801C115.446 120.894 116.079 114.353 117.347 101.272L117.675 97.8878C118.035 94.1706 118.215 92.312 117.679 90.5886C117.143 88.8652 115.952 87.4722 113.57 84.6861L111.4 82.1496C103.016 72.3454 98.8241 67.4432 100.287 62.7387C101.75 58.0341 107.899 56.6428 120.198 53.8601L123.379 53.1402C126.874 52.3495 128.622 51.9541 130.025 50.889C131.428 49.8239 132.328 48.2097 134.127 44.9812L135.766 42.0419Z" fill="url(#paint1_linear_2005_17912)"/>
<path d="M242.883 96.0209C246.05 90.3403 247.633 87.5 250 87.5C252.367 87.5 253.95 90.3403 257.117 96.0209L257.936 97.4906C258.836 99.1048 259.286 99.912 259.988 100.445C260.689 100.977 261.563 101.175 263.31 101.57L264.901 101.93C271.05 103.321 274.125 104.017 274.856 106.369C275.588 108.722 273.492 111.173 269.3 116.075L268.215 117.343C267.024 118.736 266.428 119.433 266.16 120.294C265.892 121.156 265.982 122.085 266.163 123.944L266.326 125.636C266.96 132.176 267.277 135.447 265.362 136.901C263.447 138.354 260.568 137.029 254.811 134.378L253.321 133.692C251.685 132.939 250.867 132.562 250 132.562C249.133 132.562 248.315 132.939 246.679 133.692L245.189 134.378C239.432 137.029 236.553 138.354 234.638 136.901C232.723 135.447 233.04 132.176 233.674 125.636L233.837 123.944C234.018 122.085 234.108 121.156 233.84 120.294C233.572 119.433 232.976 118.736 231.785 117.343L230.7 116.075C226.508 111.173 224.412 108.722 225.144 106.369C225.875 104.017 228.95 103.321 235.099 101.93L236.69 101.57C238.437 101.175 239.311 100.977 240.012 100.445C240.714 99.912 241.164 99.1048 242.064 97.4906L242.883 96.0209Z" fill="url(#paint2_linear_2005_17912)"/>
<path d="M42.8829 96.0209C46.0495 90.3403 47.6328 87.5 50 87.5C52.3672 87.5 53.9505 90.3403 57.1171 96.0209L57.9363 97.4906C58.8362 99.1048 59.2861 99.912 59.9876 100.445C60.6892 100.977 61.5629 101.175 63.3103 101.57L64.9012 101.93C71.0504 103.321 74.125 104.017 74.8564 106.369C75.5879 108.722 73.4919 111.173 69.2998 116.075L68.2152 117.343C67.0239 118.736 66.4283 119.433 66.1603 120.294C65.8924 121.156 65.9824 122.085 66.1625 123.944L66.3265 125.636C66.9603 132.176 67.2772 135.447 65.3621 136.901C63.4471 138.354 60.5683 137.029 54.8108 134.378L53.3213 133.692C51.6852 132.939 50.8671 132.562 50 132.562C49.1329 132.562 48.3148 132.939 46.6787 133.692L45.1892 134.378C39.4317 137.029 36.5529 138.354 34.6379 136.901C32.7228 135.447 33.0397 132.176 33.6735 125.636L33.8375 123.944C34.0176 122.085 34.1076 121.156 33.8397 120.294C33.5717 119.433 32.9761 118.736 31.7848 117.343L30.7002 116.075C26.5081 111.173 24.4121 108.722 25.1436 106.369C25.875 104.017 28.9496 103.321 35.0988 101.93L36.6897 101.57C38.4371 101.175 39.3108 100.977 40.0124 100.445C40.7139 99.912 41.1638 99.1048 42.0637 97.4906L42.8829 96.0209Z" fill="url(#paint3_linear_2005_17912)"/>
<defs>
<linearGradient id="paint0_linear_2005_17912" x1="156.25" y1="187.5" x2="156.25" y2="275" gradientUnits="userSpaceOnUse">
<stop stop-color="#FFC700"/>
<stop offset="1" stop-color="#FF9900"/>
</linearGradient>
<linearGradient id="paint1_linear_2005_17912" x1="150" y1="25" x2="150" y2="137.5" gradientUnits="userSpaceOnUse">
<stop stop-color="#FFC700"/>
<stop offset="1" stop-color="#FF9900"/>
</linearGradient>
<linearGradient id="paint2_linear_2005_17912" x1="150" y1="25" x2="150" y2="137.5" gradientUnits="userSpaceOnUse">
<stop stop-color="#FFC700"/>
<stop offset="1" stop-color="#FF9900"/>
</linearGradient>
<linearGradient id="paint3_linear_2005_17912" x1="150" y1="25" x2="150" y2="137.5" gradientUnits="userSpaceOnUse">
<stop stop-color="#FFC700"/>
<stop offset="1" stop-color="#FF9900"/>
</linearGradient>
</defs>
</svg>
