<svg width="300" height="300" viewBox="0 0 300 300" fill="none" xmlns="http://www.w3.org/2000/svg">
<path d="M149.297 97.0953C149.731 96.8793 149.945 96.875 150 96.875C150.055 96.875 150.269 96.8793 150.703 97.0953C151.169 97.3273 151.898 97.8113 152.823 98.7699C154.732 100.747 156.924 104.164 158.973 109.288C160.994 114.339 162.678 120.554 163.848 127.615C164.539 131.783 165.034 136.151 165.324 140.625H134.676C134.966 136.151 135.461 131.783 136.152 127.615C137.322 120.554 139.006 114.339 141.027 109.288C143.076 104.164 145.268 100.747 147.177 98.7699C148.102 97.8113 148.83 97.3273 149.297 97.0953Z" fill="url(#paint0_linear_2005_17911)"/>
<path d="M115.892 140.625C116.205 135.137 116.795 129.738 117.654 124.55C118.861 117.264 120.598 110.414 122.842 104.341C119.059 106.591 115.562 109.308 112.435 112.435C107.502 117.368 103.589 123.225 100.919 129.67C99.455 133.204 98.3806 136.878 97.7087 140.625H115.892Z" fill="url(#paint1_linear_2005_17911)"/>
<path d="M97.7087 159.375H115.892C116.205 164.863 116.795 170.262 117.654 175.45C118.861 182.736 120.598 189.586 122.842 195.659C119.059 193.409 115.562 190.692 112.435 187.565C107.502 182.632 103.589 176.775 100.919 170.33C99.455 166.796 98.3806 163.122 97.7087 159.375Z" fill="url(#paint2_linear_2005_17911)"/>
<path d="M202.291 140.625C201.619 136.878 200.545 133.204 199.081 129.67C196.411 123.225 192.498 117.368 187.565 112.435C184.438 109.308 180.941 106.591 177.158 104.341C179.402 110.414 181.139 117.264 182.346 124.55C183.205 129.738 183.795 135.137 184.108 140.625H202.291Z" fill="url(#paint3_linear_2005_17911)"/>
<path d="M184.108 159.375H202.291C201.619 163.122 200.545 166.796 199.081 170.33C196.411 176.775 192.498 182.632 187.565 187.565C184.438 190.692 180.941 193.409 177.158 195.659C179.402 189.586 181.139 182.736 182.346 175.45C183.205 170.262 183.795 164.863 184.108 159.375Z" fill="url(#paint4_linear_2005_17911)"/>
<path d="M165.324 159.375C165.034 163.849 164.539 168.217 163.848 172.385C162.678 179.446 160.994 185.661 158.973 190.712C156.924 195.836 154.732 199.253 152.823 201.23C151.898 202.189 151.169 202.673 150.703 202.905C150.269 203.121 150.055 203.125 150 203.125C149.945 203.125 149.731 203.121 149.297 202.905C148.83 202.673 148.102 202.189 147.177 201.23C145.268 199.253 143.076 195.836 141.027 190.712C139.006 185.661 137.322 179.446 136.152 172.385C135.461 168.217 134.966 163.849 134.676 159.375H165.324Z" fill="url(#paint5_linear_2005_17911)"/>
<path fill-rule="evenodd" clip-rule="evenodd" d="M42.2189 63.5301C37.5 70.2535 37.5 90.2384 37.5 130.208V149.892C37.5 220.368 90.487 254.569 123.732 269.091C132.75 273.03 137.259 275 150 275C162.741 275 167.25 273.03 176.268 269.091C209.513 254.569 262.5 220.368 262.5 149.892V130.208C262.5 90.2384 262.5 70.2535 257.781 63.5301C253.062 56.8067 234.271 50.3745 196.689 37.5099L189.528 35.059C169.938 28.353 160.142 25 150 25C139.858 25 130.062 28.353 110.472 35.059L103.311 37.5099C65.7291 50.3745 46.9379 56.8067 42.2189 63.5301ZM78.125 150C78.125 140.561 79.9841 131.215 83.5962 122.495C87.2082 113.774 92.5025 105.851 99.1767 99.1767C105.851 92.5025 113.774 87.2082 122.495 83.5962C131.215 79.9841 140.561 78.125 150 78.125C159.439 78.125 168.785 79.9841 177.505 83.5962C186.226 87.2082 194.149 92.5025 200.823 99.1767C207.498 105.851 212.792 113.774 216.404 122.495C220.016 131.215 221.875 140.561 221.875 150C221.875 159.439 220.016 168.785 216.404 177.505C212.792 186.226 207.498 194.149 200.823 200.823C194.149 207.498 186.226 212.792 177.505 216.404C168.785 220.016 159.439 221.875 150 221.875C140.561 221.875 131.215 220.016 122.495 216.404C113.774 212.792 105.851 207.498 99.1767 200.823C92.5025 194.149 87.2082 186.226 83.5962 177.505C79.9841 168.785 78.125 159.439 78.125 150Z" fill="url(#paint6_linear_2005_17911)"/>
<defs>
<linearGradient id="paint0_linear_2005_17911" x1="150" y1="25" x2="150" y2="275" gradientUnits="userSpaceOnUse">
<stop stop-color="#FFC700"/>
<stop offset="1" stop-color="#FF9900"/>
</linearGradient>
<linearGradient id="paint1_linear_2005_17911" x1="150" y1="25" x2="150" y2="275" gradientUnits="userSpaceOnUse">
<stop stop-color="#FFC700"/>
<stop offset="1" stop-color="#FF9900"/>
</linearGradient>
<linearGradient id="paint2_linear_2005_17911" x1="150" y1="25" x2="150" y2="275" gradientUnits="userSpaceOnUse">
<stop stop-color="#FFC700"/>
<stop offset="1" stop-color="#FF9900"/>
</linearGradient>
<linearGradient id="paint3_linear_2005_17911" x1="150" y1="25" x2="150" y2="275" gradientUnits="userSpaceOnUse">
<stop stop-color="#FFC700"/>
<stop offset="1" stop-color="#FF9900"/>
</linearGradient>
<linearGradient id="paint4_linear_2005_17911" x1="150" y1="25" x2="150" y2="275" gradientUnits="userSpaceOnUse">
<stop stop-color="#FFC700"/>
<stop offset="1" stop-color="#FF9900"/>
</linearGradient>
<linearGradient id="paint5_linear_2005_17911" x1="150" y1="25" x2="150" y2="275" gradientUnits="userSpaceOnUse">
<stop stop-color="#FFC700"/>
<stop offset="1" stop-color="#FF9900"/>
</linearGradient>
<linearGradient id="paint6_linear_2005_17911" x1="150" y1="25" x2="150" y2="275" gradientUnits="userSpaceOnUse">
<stop stop-color="#FFC700"/>
<stop offset="1" stop-color="#FF9900"/>
</linearGradient>
</defs>
</svg>
