<svg width="300" height="300" viewBox="0 0 300 300" fill="none" xmlns="http://www.w3.org/2000/svg">
<path d="M37.5 130.208C37.5 90.2384 37.5 70.2535 42.2189 63.5301C46.9379 56.8067 65.7291 50.3745 103.311 37.5099L110.472 35.059C130.062 28.353 139.858 25 150 25C160.142 25 169.938 28.353 189.528 35.059L196.689 37.5099C234.271 50.3745 253.062 56.8067 257.781 63.5301C262.5 70.2535 262.5 90.2384 262.5 130.208C262.5 136.246 262.5 142.793 262.5 149.892C262.5 220.368 209.513 254.569 176.268 269.091C167.25 273.03 162.741 275 150 275C137.259 275 132.75 273.03 123.732 269.091C90.487 254.569 37.5 220.368 37.5 149.892C37.5 142.793 37.5 136.246 37.5 130.208Z" fill="white" fill-opacity="0.2"/>
<path fill-rule="evenodd" clip-rule="evenodd" d="M150 34.375C141.778 34.375 133.689 37.0205 113.508 43.9287L106.348 46.3797C87.4401 52.8517 73.6512 57.5756 63.9699 61.5086C59.1375 63.4717 55.6363 65.1168 53.1786 66.5441C51.9653 67.2488 51.1292 67.8302 50.5709 68.2841C50.0975 68.6689 49.917 68.8868 49.8911 68.9186C49.867 68.9578 49.7116 69.2176 49.4929 69.8317C49.243 70.5331 48.9662 71.5386 48.6964 72.9382C48.1505 75.7712 47.7368 79.6627 47.451 84.9115C46.8784 95.4264 46.875 110.104 46.875 130.208V149.892C46.875 214.581 95.2487 246.418 127.485 260.5C132.128 262.528 134.81 263.676 137.795 264.441C140.646 265.17 144.125 265.625 150 265.625C155.875 265.625 159.354 265.17 162.205 264.441C165.19 263.676 167.872 262.528 172.515 260.5C204.751 246.418 253.125 214.581 253.125 149.892V130.208C253.125 110.104 253.122 95.4264 252.549 84.9115C252.263 79.6627 251.849 75.7712 251.304 72.9382C251.034 71.5386 250.757 70.5331 250.507 69.8317C250.288 69.2171 250.133 68.9575 250.109 68.9185C250.083 68.8865 249.902 68.6686 249.429 68.2841C248.871 67.8302 248.035 67.2488 246.821 66.5441C244.364 65.1168 240.862 63.4717 236.03 61.5086C226.349 57.5756 212.56 52.8517 193.652 46.3797L186.492 43.9287C166.311 37.0205 158.222 34.375 150 34.375ZM109.042 25.6389C127.092 19.4573 138.281 15.625 150 15.625C161.719 15.625 172.909 19.4573 190.958 25.639C191.487 25.8204 192.023 26.0038 192.565 26.1892L200.05 28.7517C218.567 35.09 232.857 39.9815 243.087 44.1373C248.24 46.2307 252.67 48.2584 256.238 50.3301C259.671 52.3238 263.115 54.8105 265.455 58.1443C267.767 61.4395 268.963 65.4906 269.715 69.3903C270.496 73.4445 270.967 78.3079 271.271 83.892C271.875 94.98 271.875 110.17 271.875 129.873V149.892C271.875 226.155 214.275 262.719 180.021 277.682L179.682 277.83C175.435 279.686 171.442 281.431 166.855 282.605C162.012 283.845 156.866 284.375 150 284.375C143.134 284.375 137.988 283.845 133.145 282.605C128.558 281.431 124.565 279.686 120.318 277.83L119.979 277.682C85.7253 262.719 28.125 226.155 28.125 149.892V129.874C28.125 110.171 28.125 94.9802 28.7287 83.892C29.0328 78.3079 29.5039 73.4445 30.2852 69.3903C31.0367 65.4906 32.2326 61.4395 34.5454 58.1443C36.8853 54.8105 40.3293 52.3238 43.7623 50.3301C47.3296 48.2584 51.7598 46.2307 56.9129 44.1373C67.1425 39.9815 81.4327 35.09 99.9493 28.7517L107.435 26.1892C107.977 26.0038 108.513 25.8204 109.042 25.6389Z" fill="white" fill-opacity="0.2"/>
</svg>
